<?xml version="1.0" encoding="utf-8"?>
<!-- Generator: Adobe Illustrator 21.1.0, SVG Export Plug-In . SVG Version: 6.00 Build 0)  -->
<svg version="1.1" id="Layer_1" xmlns="http://www.w3.org/2000/svg" xmlns:xlink="http://www.w3.org/1999/xlink" x="0px" y="0px"
	 viewBox="0 0 64 64" style="enable-background:new 0 0 64 64;" xml:space="preserve">
<style type="text/css">
	.st0{fill:#FFFFFF;fill-opacity:0;}
	.st1{fill:#FFFFFF;}
</style>
<g id="icon-m-favorite_2_">
	<rect id="icon-m-favorite" class="st0" width="64" height="64"/>
	<path class="st1" d="M44.5229988,50.868c-0.5299988,0-1.1080017-0.2319984-1.7659988-0.7099991L33.9389992,43.75
		c-0.9900017-0.7190018-2.8889999-0.7200012-3.8789997,0l-8.8179989,6.4080009
		c-1.2880001,0.9370003-2.4160004,0.9039993-3.0020008,0.098999c-0.3959999-0.5449982-0.4290009-1.3359985-0.0990009-2.3520012
		l3.3699989-10.3670006c0.3950005-1.2150002-0.1660004-2.9379997-1.1989994-3.6879997l-8.8199997-6.4090004
		c-1.3470001-0.9790001-1.4130001-1.8540001-1.2299995-2.4150009c0.1820002-0.5620003,0.75-1.2299995,2.415-1.2299995h10.8990011
		c1.2770004,0,2.7439995-1.0650005,3.1380005-2.2800007l3.3689995-10.3690004
		C30.5979996,9.5629997,31.4099998,9.2299995,32,9.2299995s1.4020004,0.3330002,1.9160004,1.9169998l3.3699989,10.3689995
		c0.3950005,1.2150002,1.8610001,2.2800007,3.1389999,2.2800007h10.901001c1.6650009,0,2.2319984,0.6690006,2.4150009,1.2299995
		c0.1819992,0.5610008,0.1160011,1.4360008-1.2299995,2.414999l-8.8199997,6.4080009
		c-1.0330009,0.7509995-1.5940018,2.4760017-1.1990013,3.6899986l3.368,10.3670006
		c0.3289986,1.0159988,0.2960014,1.8059998-0.0999985,2.3510017C45.473999,50.651001,45.0340004,50.868,44.5229988,50.868z
		 M32,41.1839981c1.1669998,0,2.2729988,0.3370018,3.1150017,0.9490013l8.8180008,6.4080009
		c0.0130005,0.0089989,0.0250015,0.0180016,0.0369987,0.026001c-0.0040016-0.0149994-0.0089989-0.0289993-0.0139999-0.0439987
		l-3.368-10.3670006c-0.6660004-2.0540009,0.1800003-4.656002,1.9259987-5.9249992l8.8199997-6.4080009
		c0.0130005-0.0090008,0.0239983-0.0179996,0.0359993-0.0270004c-0.0149994,0-0.0289993,0-0.0449982,0H40.4249992
		c-2.1590004,0-4.3730011-1.6079998-5.0410004-3.6620007l-3.3699989-10.3690004
		C32.0089989,11.75,32.0050011,11.7360001,32,11.7220001c-0.0049992,0.0139999-0.0090008,0.0290003-0.0139999,0.0430002
		l-3.3689995,10.3690004c-0.6669998,2.0529995-2.8810005,3.6620007-5.0410004,3.6620007H12.677
		c-0.0159998,0-0.0299997,0-0.0450001,0c0.0120001,0.0090008,0.0240002,0.0179996,0.0369997,0.0270004l8.8199987,6.4080009
		c1.7469997,1.269001,2.5919991,3.8720016,1.9249992,5.9239998l-3.3699989,10.368
		c-0.0049992,0.0149994-0.0090008,0.0289993-0.0139999,0.0429993c0.0119991-0.0079994,0.0240002-0.0169983,0.0359993-0.0250015
		l8.8180008-6.4080009C29.7269993,41.5209999,30.8330002,41.1839981,32,41.1839981z"/>
</g>
<path class="st1" d="M32.0000267,43.2138824c-0.7224255-0.0002136-1.4449062,0.1795349-1.9400272,0.5396233l-8.8179989,6.4080009
	c-1.2880001,0.9370003-2.4160004,0.9039993-3.0020008,0.098999c-0.3959999-0.5449982-0.4290009-1.3359985-0.0990009-2.3520012
	l3.3699989-10.3670006c0.3950005-1.2150002-0.1660004-2.9379997-1.1989994-3.6879997l-8.8199997-6.4089985
	c-1.3470001-0.9790001-1.4130001-1.8540001-1.2299995-2.4150009c0.1820002-0.5620003,0.75-1.2299995,2.415-1.2299995h10.8990011
	c1.2770004,0,2.7439995-1.0650005,3.1380005-2.2800007l3.3689995-10.3690004
	C30.5979996,9.5665073,31.4099998,9.2335072,32,9.2335072"/>
</svg>
